<svg width="68" height="68" viewBox="0 0 68 68" fill="none" xmlns="http://www.w3.org/2000/svg">
<circle cx="34" cy="34" r="34" fill="white"/>
<path d="M57 46.1837C57 48.833 54.8164 51 52.1472 51H15.8528C13.1837 51 11 48.8329 11 46.1837V21.8163C11 19.1671 13.1837 17 15.8528 17H52.1472C54.8164 17 57 19.1671 57 21.8163V46.1837Z" fill="white"/>
<path d="M52.1633 16H15.8367C12.6183 16 10 18.6006 10 21.797V46.2031C10 49.3996 12.6183 52 15.8367 52H52.1633C55.3818 52 58 49.3996 58 46.2031V21.797C58 18.6006 55.3818 16 52.1633 16ZM49.3667 17.9459L33.9868 30.2932L18.6068 17.9459H49.3667ZM50.1368 50.0541H17.8368V27.3315L33.3722 39.761C33.7309 40.048 34.2426 40.048 34.6013 39.761L50.1367 27.3315L50.1368 50.0541ZM56.0408 46.203C56.0408 48.3266 54.3014 50.0541 52.1633 50.0541H52.0961V25.2984C52.0961 24.9238 51.8796 24.5826 51.5393 24.4208C51.1988 24.259 50.7955 24.3059 50.502 24.5408L33.9868 37.7541L17.4717 24.5408C17.1779 24.3059 16.7744 24.259 16.4343 24.4208C16.094 24.5826 15.8776 24.9238 15.8776 25.2984V50.0541H15.8367C13.6987 50.0541 11.9593 48.3266 11.9593 46.2031V21.797C11.9593 19.7833 13.5238 18.1267 15.5087 17.9607L33.3711 32.3011C33.5507 32.4453 33.7688 32.5174 33.9869 32.5174C34.205 32.5174 34.4231 32.4453 34.6026 32.3011L52.4672 17.9588C54.4636 18.1134 56.0408 19.7751 56.0408 21.7969V46.203Z" fill="url(#paint0_linear_2_39)"/>
<path d="M47.8524 35C48.0406 35 48.2302 34.9041 48.3878 34.707L48.6842 34.3368C49.0498 33.8799 49.1062 33.052 48.8102 32.4876C48.5143 31.9231 47.9778 31.836 47.6122 32.293L47.3158 32.6632C46.9502 33.1201 46.8938 33.9481 47.1898 34.5125C47.3581 34.8334 47.6042 35 47.8524 35Z" fill="url(#paint1_linear_2_39)"/>
<path d="M37.9842 43C38.2016 43 38.4205 42.9243 38.6025 42.769L45.6353 36.8439C46.0575 36.4834 46.1226 35.8302 45.7808 35.3848C45.4391 34.9394 44.8196 34.8706 44.3975 35.231L37.3647 41.1561C36.9425 41.5166 36.8774 42.1698 37.2192 42.6152C37.4134 42.8684 37.6976 43 37.9842 43Z" fill="url(#paint2_linear_2_39)"/>
<defs>
<linearGradient id="paint0_linear_2_39" x1="34" y1="16" x2="34" y2="52" gradientUnits="userSpaceOnUse">
<stop stop-color="#668E19"/>
<stop offset="1" stop-color="#C8FA68"/>
</linearGradient>
<linearGradient id="paint1_linear_2_39" x1="48" y1="32" x2="48" y2="35" gradientUnits="userSpaceOnUse">
<stop stop-color="#668E19"/>
<stop offset="1" stop-color="#C8FA68"/>
</linearGradient>
<linearGradient id="paint2_linear_2_39" x1="41.5" y1="35" x2="41.5" y2="43" gradientUnits="userSpaceOnUse">
<stop stop-color="#668E19"/>
<stop offset="1" stop-color="#C8FA68"/>
</linearGradient>
</defs>
</svg>
