<?xml version="1.0" encoding="UTF-8" standalone="no"?>
<!-- Created with Inkscape (http://www.inkscape.org/) -->

<svg
   version="1.1"
   id="svg18"
   width="142.16406"
   height="121.53656"
   viewBox="0 0 142.16406 121.53656"
   sodipodi:docname="Bridge care.ai"
   xmlns:inkscape="http://www.inkscape.org/namespaces/inkscape"
   xmlns:sodipodi="http://sodipodi.sourceforge.net/DTD/sodipodi-0.dtd"
   xmlns="http://www.w3.org/2000/svg"
   xmlns:svg="http://www.w3.org/2000/svg">
  <defs
     id="defs22">
    <clipPath
       clipPathUnits="userSpaceOnUse"
       id="clipPath1164">
      <path
         d="M 0,1080 H 1920 V 0 H 0 Z"
         id="path1162" />
    </clipPath>
  </defs>
  <sodipodi:namedview
     id="namedview20"
     pagecolor="#ffffff"
     bordercolor="#000000"
     borderopacity="0.25"
     inkscape:showpageshadow="2"
     inkscape:pageopacity="0.0"
     inkscape:pagecheckerboard="0"
     inkscape:deskcolor="#d1d1d1"
     showgrid="false" />
  <g
     id="g618"
     inkscape:groupmode="layer"
     inkscape:label="Page 2"
     transform="matrix(1.3333333,0,0,-1.3333333,-1691.1689,1154.1299)">
    <g
       id="g1158"
       inkscape:export-filename="g1158.svg"
       inkscape:export-xdpi="96"
       inkscape:export-ydpi="96">
      <g
         id="g1160"
         clip-path="url(#clipPath1164)">
        <g
           id="g1166"
           transform="translate(1357.5566,818.083)">
          <path
             d="m 0,0 h -15.573 c -0.586,-0.004 -1.107,0.388 -1.261,0.959 l -1.917,6.883 -3.356,-10.87 c -0.164,-0.525 -0.64,-0.899 -1.221,-0.921 h -0.027 c -0.541,0 -1.028,0.327 -1.221,0.829 L -25.809,0 h -4.267 l -3.415,-16.725 c -0.128,-0.61 -0.661,-1.042 -1.306,-1.042 h -0.005 l -0.043,0.001 0.026,0.598 -0.035,-0.598 c -0.652,0.039 -1.178,0.553 -1.229,1.204 l -2.093,26.555 -1.009,-8.186 c -0.084,-0.655 -0.634,-1.148 -1.299,-1.153 l -4.819,0.001 -1.228,-3.116 c -0.197,-0.501 -0.681,-0.833 -1.226,-0.831 -0.53,0.002 -1.017,0.327 -1.216,0.831 l -1.228,3.115 h -2.739 c -0.536,0 -1.014,0.325 -1.216,0.818 l -1.366,3.354 -1.284,-3.725 C -56.989,0.568 -57.484,0.218 -58.043,0.218 H -69.899 V 0.214 h -0.599 c -0.729,0.004 -1.309,0.593 -1.311,1.314 0.002,0.724 0.586,1.308 1.311,1.31 h 11.519 l 2.116,6.134 c 0.175,0.513 0.648,0.863 1.183,0.886 0.016,10e-4 0.034,0.002 0.054,0.003 0.53,0 1.013,-0.322 1.216,-0.82 l 2.348,-5.765 h 2.754 c 0.542,0 0.865,-0.251 1.059,-0.746 l 0.535,-1.826 0.534,1.736 c 0.198,0.5 0.447,0.836 0.986,0.836 h 4.549 l 2.455,19.908 c 0.078,0.662 0.639,1.153 1.298,1.153 0,-0.003 0,0 0.036,0 0.014,0 0.03,-0.003 0.049,-0.004 0.648,-0.039 1.171,-0.553 1.221,-1.203 l 2.386,-30.226 1.771,8.67 c 0.125,0.607 0.659,1.044 1.285,1.047 h 6.228 c 0.541,-0.003 0.871,-0.308 1.072,-0.805 l 0.355,-1.29 3.548,12.355 c 0.164,0.539 0.659,0.918 1.228,0.927 0.007,0 0.027,0.003 0.06,0 0.012,0 0.028,-0.002 0.046,-0.004 0.56,-0.033 1.031,-0.421 1.182,-0.957 L -14.579,2.621 0,2.618 c 0.719,0 1.308,-0.585 1.308,-1.31 C 1.306,0.584 0.719,0 0,0 m 3.641,44.39 c -16.413,9.153 -34.097,-4.329 -39.726,-8.282 -5.626,3.953 -23.656,16.673 -39.722,8.282 -14.797,-7.73 -22.006,-37.318 3.658,-61.003 20.682,-19.089 35.095,-26.552 36.001,-27 0.09,-0.062 0.181,0.011 0.181,0.011 0.908,0.447 15.097,8.087 35.948,26.989 26.718,24.218 18.505,52.721 3.66,61.003"
             style="fill:#ffffff;fill-opacity:1;fill-rule:nonzero;stroke:none"
             id="path1168" />
        </g>
      </g>
    </g>
  </g>
</svg>
