<svg width="68" height="68" viewBox="0 0 68 68" fill="none" xmlns="http://www.w3.org/2000/svg">
<circle cx="34" cy="34" r="34" fill="white"/>
<path fill-rule="evenodd" clip-rule="evenodd" d="M25.3262 13.2577C21.9077 13.412 18.9447 14.2478 16.5521 16.6302C14.1512 19.0252 13.3258 21.9999 13.1712 25.3829C13.075 27.4944 12.513 43.4463 14.1428 47.6297C15.242 50.452 17.4067 52.6219 20.2548 53.7246C21.5838 54.2415 23.1008 54.5914 25.3262 54.6936C43.9338 55.5357 50.8315 55.0772 53.7402 47.6297C54.2563 46.304 54.6115 44.7883 54.7097 42.5684C55.5602 23.913 54.5719 19.8694 51.3289 16.6302C48.7566 14.0643 45.7309 12.3177 25.3262 13.2577ZM25.4975 50.9417C23.4602 50.85 22.3548 50.5105 21.6172 50.2249C19.7617 49.5037 18.3679 48.1158 17.6512 46.2711C16.41 43.0923 16.8217 27.995 16.9324 25.5521C17.0411 23.1592 17.5258 20.9723 19.2142 19.2839C21.3038 17.1995 24.0035 16.178 42.3854 17.0076C44.7843 17.1159 46.9763 17.5997 48.6688 19.2839C50.7584 21.3683 51.7948 24.0888 50.9506 42.4002C50.8587 44.4325 50.5181 45.5353 50.2318 46.2711C48.3408 51.1173 43.9902 51.79 25.4975 50.9417ZM42.5881 22.8482C42.5881 24.228 43.7103 25.3501 45.0957 25.3501C46.481 25.3501 47.6052 24.228 47.6052 22.8482C47.6052 21.4683 46.481 20.3472 45.0957 20.3472C43.7103 20.3472 42.5881 21.4683 42.5881 22.8482ZM23.2116 33.9746C23.2116 39.886 28.0155 44.6786 33.9415 44.6786C39.8675 44.6786 44.6715 39.886 44.6715 33.9746C44.6715 28.0633 39.8675 23.2737 33.9415 23.2737C28.0155 23.2737 23.2116 28.0633 23.2116 33.9746ZM26.977 33.9746C26.977 30.1394 30.0946 27.0276 33.9415 27.0276C37.7884 27.0276 40.9061 30.1394 40.9061 33.9746C40.9061 37.812 37.7884 40.9247 33.9415 40.9247C30.0946 40.9247 26.977 37.812 26.977 33.9746Z" fill="url(#paint0_linear_4_8)"/>
<defs>
<linearGradient id="paint0_linear_4_8" x1="13.8077" y1="13" x2="49.7497" y2="50.1535" gradientUnits="userSpaceOnUse">
<stop stop-color="#668E19"/>
<stop offset="1" stop-color="#C8FA68"/>
</linearGradient>
</defs>
</svg>
