<?xml version="1.0" encoding="UTF-8" standalone="no"?>
<!-- Created with Inkscape (http://www.inkscape.org/) -->

<svg
   version="1.1"
   id="svg18"
   width="503.59229"
   height="116.78931"
   viewBox="0 0 503.59229 116.78931"
   xmlns="http://www.w3.org/2000/svg"
   xmlns:svg="http://www.w3.org/2000/svg">
  <defs
     id="defs22">
    <clipPath
       clipPathUnits="userSpaceOnUse"
       id="clipPath1822">
      <path
         d="M 0,1080 H 1920 V 0 H 0 Z"
         id="path1820" />
    </clipPath>
    <clipPath
       clipPathUnits="userSpaceOnUse"
       id="clipPath3344">
      <path
         d="M 0,1080 H 1920 V 0 H 0 Z"
         id="path3342" />
    </clipPath>
  </defs>
  <g
     id="g1810"
     transform="matrix(1.3333333,0,0,-1.3333333,-182.88135,1035.4909)">
    <g
       id="g1816">
      <g
         id="g1818"
         clip-path="url(#clipPath1822)">
        <g
           id="g3330"
           transform="translate(196.4126,776.6182)">
          <path
             d="m 0,0 c -1.074,-7.731 -3.271,-13.979 -12.613,-19.567 -0.294,-0.183 -0.592,-0.359 -0.894,-0.521 -7.887,-4.467 -12.75,-8.7 -15.727,-12.051 -0.01,0.01 -0.019,0.021 -0.029,0.031 -2.678,-2.879 -5.179,-6.218 -7.185,-10.038 0.246,-2.087 0.229,-4.309 -0.095,-6.688 -1.922,-14.095 -1.994,-26.134 7.309,-38.758 9.301,12.624 9.23,24.663 7.308,38.758 -1.661,12.181 4.651,20.265 13.842,26.908 C 1.107,-15.281 1.771,-6.423 0,0 m -31.582,-29.718 c -3.008,2.872 -7.29,6.181 -13.38,9.63 -10.099,5.72 -12.399,12.115 -13.507,20.088 -1.772,-6.423 -1.107,-15.281 8.084,-21.926 5.442,-3.933 9.874,-8.373 12.24,-13.868 2.083,2.25 4.44,4.344 6.563,6.076 m 8.382,11.724 c 0,-4.128 -2.701,-7.475 -6.034,-7.475 -3.334,0 -6.036,3.347 -6.036,7.475 0,4.128 2.702,7.474 6.036,7.474 3.333,0 6.034,-3.346 6.034,-7.474"
             style="fill:#ffffff;fill-opacity:1;fill-rule:nonzero;stroke:none"
             id="path3332" />
        </g>
      </g>
    </g>
    <g
       id="g3338">
      <g
         id="g3340"
         clip-path="url(#clipPath3344)">
        <g
           id="g3346"
           transform="translate(242.6279,709.728)">
          <path
             d="m 0,0 c -1.122,-0.31 -2.475,-0.464 -4.06,-0.464 h -6.438 V 12.76 h 5.452 c 1.856,0 3.412,-0.155 4.669,-0.464 1.256,-0.31 2.31,-0.754 3.161,-1.334 C 3.557,10.459 4.137,9.811 4.524,9.019 4.91,8.226 5.104,7.211 5.104,5.974 5.104,3.963 4.369,2.397 2.9,1.276 2.088,0.734 1.121,0.309 0,0 Z m -7.308,18.212 h -3.19 v 12.876 h 3.016 c 1.662,0 3.064,-0.145 4.205,-0.435 1.14,-0.29 2.078,-0.706 2.813,-1.247 C 0.193,28.903 0.705,28.255 1.073,27.463 1.44,26.67 1.624,25.674 1.624,24.476 1.624,23.393 1.44,22.484 1.073,21.75 0.705,21.015 0.174,20.377 -0.522,19.836 -1.953,18.753 -4.215,18.212 -7.308,18.212 Z M 4.06,16.588 c 2.513,2.088 3.77,4.814 3.77,8.178 0,3.712 -1.315,6.65 -3.944,8.816 -1.315,1.005 -2.842,1.749 -4.582,2.233 -1.74,0.483 -3.654,0.725 -5.742,0.725 H -16.472 V -5.916 H -3.48 c 4.446,0 8.004,1.044 10.672,3.132 2.706,2.204 4.06,5.22 4.06,9.048 0,3.209 -1.025,5.78 -3.074,7.714 -1.16,1.16 -2.533,2.03 -4.118,2.61 z"
             style="fill:none;stroke:#ffffff;stroke-width:1;stroke-linecap:butt;stroke-linejoin:miter;stroke-miterlimit:10;stroke-dasharray:none;stroke-opacity:1"
             id="path3348" />
        </g>
        <g
           id="g3350"
           transform="translate(273.1943,733.2764)">
          <path
             d="m 0,0 c -0.851,0 -1.76,-0.087 -2.726,-0.261 -0.967,-0.174 -1.953,-0.687 -2.958,-1.537 -0.232,-0.194 -0.522,-0.542 -0.87,-1.044 -0.348,-0.503 -0.629,-0.938 -0.841,-1.305 -0.213,-0.368 -0.339,-0.59 -0.377,-0.667 v 4.292 h -5.684 v -28.942 h 5.684 v 17.458 c 0.657,1.198 1.701,2.571 3.132,4.118 0.773,0.85 1.469,1.44 2.088,1.769 0.618,0.328 1.198,0.493 1.74,0.493 0.425,0 0.966,-0.194 1.624,-0.58 0.386,-0.232 0.831,-0.561 1.334,-0.986 0.502,-0.426 1.314,-1.16 2.436,-2.204 l 3.132,4.93 C 7.211,-3.809 6.718,-3.277 6.235,-2.871 5.751,-2.465 5.2,-2.05 4.582,-1.624 3.151,-0.542 1.624,0 0,0 Z"
             style="fill:none;stroke:#ffffff;stroke-width:1;stroke-linecap:butt;stroke-linejoin:miter;stroke-miterlimit:10;stroke-dasharray:none;stroke-opacity:1"
             id="path3352" />
        </g>
        <path
           d="m 286.069,703.812 h 5.684 v 28.942 h -5.684 z m 0,34.8 h 5.684 v 7.656 h -5.684 z"
           style="fill:none;stroke:#ffffff;stroke-width:1;stroke-linecap:butt;stroke-linejoin:miter;stroke-miterlimit:10;stroke-dasharray:none;stroke-opacity:1"
           id="path3354" />
        <g
           id="g3356"
           transform="translate(311.4146,708.916)">
          <path
             d="m 0,0 c -2.707,0 -4.969,0.908 -6.786,2.726 -1.779,1.778 -2.668,3.982 -2.668,6.612 0,2.784 0.85,5.065 2.552,6.844 1.624,1.701 3.789,2.552 6.496,2.552 1.469,0 2.764,-0.252 3.886,-0.754 0.85,-0.426 1.546,-0.774 2.088,-1.044 V 2.262 C 5.374,2.146 5.142,1.914 4.872,1.566 4.601,1.218 4.292,0.947 3.944,0.754 3.016,0.251 1.701,0 0,0 Z M 5.626,-5.104 H 11.31 V 37.352 H 5.626 v -14.21 c -0.967,0.386 -1.924,0.686 -2.871,0.899 -0.948,0.212 -1.943,0.319 -2.987,0.319 -4.447,0 -8.082,-1.392 -10.904,-4.176 -2.784,-2.862 -4.176,-6.477 -4.176,-10.846 0,-2.088 0.348,-4.022 1.044,-5.8 0.696,-1.779 1.759,-3.384 3.19,-4.814 2.822,-2.9 6.302,-4.35 10.44,-4.35 0.773,0 1.537,0.049 2.291,0.145 0.754,0.097 1.479,0.261 2.175,0.493 0.309,0.116 0.609,0.329 0.899,0.638 0.29,0.31 0.589,0.561 0.899,0.754 z"
             style="fill:none;stroke:#ffffff;stroke-width:1;stroke-linecap:butt;stroke-linejoin:miter;stroke-miterlimit:10;stroke-dasharray:none;stroke-opacity:1"
             id="path3358" />
        </g>
        <g
           id="g3360"
           transform="translate(343.1982,708.7422)">
          <path
             d="M 0,0 C -2.707,0 -4.814,0.812 -6.322,2.436 -7.908,3.944 -8.7,6.09 -8.7,8.874 c 0,2.938 0.889,5.355 2.668,7.25 1.74,1.856 3.963,2.784 6.67,2.784 1.469,0 2.764,-0.252 3.886,-0.754 C 4.949,17.96 5.316,17.699 5.626,17.371 5.935,17.042 6.206,16.8 6.438,16.646 V 1.682 C 6.09,1.488 5.713,1.305 5.307,1.131 4.901,0.957 4.485,0.773 4.06,0.58 3.054,0.193 1.701,0 0,0 Z m 6.438,24.012 v -1.45 c -1.044,0.425 -2.088,0.86 -3.132,1.305 -1.044,0.444 -2.127,0.667 -3.248,0.667 -4.331,0 -7.869,-1.489 -10.614,-4.466 -1.354,-1.47 -2.359,-3.152 -3.016,-5.046 -0.658,-1.895 -0.986,-3.964 -0.986,-6.206 0,-2.05 0.319,-3.925 0.957,-5.626 0.638,-1.702 1.633,-3.248 2.987,-4.64 2.668,-2.668 6.032,-4.002 10.092,-4.002 1.624,0 3.228,0.213 4.814,0.638 0.348,0.078 0.696,0.174 1.044,0.29 0.348,0.116 0.696,0.232 1.044,0.348 v -4.64 c 0,-0.309 -0.203,-0.647 -0.609,-1.015 -0.406,-0.367 -0.909,-0.715 -1.508,-1.044 -0.6,-0.328 -1.238,-0.609 -1.914,-0.841 -0.677,-0.232 -1.267,-0.348 -1.769,-0.348 -0.542,0 -1.17,0.078 -1.885,0.232 -0.716,0.155 -1.286,0.387 -1.711,0.696 -0.426,0.271 -0.928,0.687 -1.508,1.247 -0.58,0.561 -1.16,1.421 -1.74,2.581 l -5.8,-0.116 c 0.734,-2.281 1.488,-4.031 2.262,-5.249 0.773,-1.218 1.662,-2.233 2.668,-3.045 1.005,-0.85 2.233,-1.479 3.683,-1.885 1.45,-0.406 2.793,-0.609 4.031,-0.609 1.044,0 2.223,0.252 3.538,0.754 1.314,0.503 2.561,1.18 3.741,2.03 1.179,0.851 2.175,1.847 2.987,2.987 0.812,1.141 1.218,2.349 1.218,3.625 v 32.828 z"
             style="fill:none;stroke:#ffffff;stroke-width:1;stroke-linecap:butt;stroke-linejoin:miter;stroke-miterlimit:10;stroke-dasharray:none;stroke-opacity:1"
             id="path3362" />
        </g>
        <g
           id="g3364"
           transform="translate(367.5864,723.8223)">
          <path
             d="m 0,0 c 0.212,0.541 0.435,0.966 0.667,1.276 1.353,1.701 3.19,2.552 5.51,2.552 1.933,0 3.441,-0.542 4.524,-1.624 0.386,-0.387 0.725,-0.928 1.015,-1.624 0.29,-0.696 0.531,-1.373 0.725,-2.03 H -0.609 C -0.416,-1.025 -0.213,-0.542 0,0 Z m 19.111,-6.032 c 0,2.706 -0.29,4.959 -0.87,6.757 -0.58,1.798 -1.489,3.373 -2.726,4.727 C 13.079,8.12 9.947,9.454 6.119,9.454 2.213,9.454 -1.015,8.023 -3.567,5.162 -4.843,3.731 -5.791,2.146 -6.409,0.406 c -0.619,-1.74 -0.928,-3.596 -0.928,-5.568 0,-4.447 1.392,-8.12 4.176,-11.02 2.784,-2.9 6.341,-4.35 10.672,-4.35 2.204,0 4.176,0.377 5.916,1.131 1.74,0.754 3.46,1.788 5.162,3.103 v 7.134 c -0.774,-0.696 -1.431,-1.286 -1.972,-1.769 -0.542,-0.484 -1.025,-0.89 -1.45,-1.218 -0.426,-0.329 -0.832,-0.609 -1.218,-0.841 -0.387,-0.232 -0.793,-0.464 -1.218,-0.696 -1.392,-0.812 -3.055,-1.218 -4.988,-1.218 -2.63,0 -4.834,0.889 -6.612,2.668 -1.663,1.624 -2.533,3.692 -2.61,6.206 z"
             style="fill:none;stroke:#ffffff;stroke-width:1;stroke-linecap:butt;stroke-linejoin:miter;stroke-miterlimit:10;stroke-dasharray:none;stroke-opacity:1"
             id="path3366" />
        </g>
        <g
           id="g3368"
           transform="translate(429.5884,710.4824)">
          <path
             d="m 0,0 c -0.484,-0.194 -0.899,-0.358 -1.247,-0.493 -0.348,-0.136 -0.658,-0.252 -0.928,-0.348 -0.271,-0.097 -0.542,-0.184 -0.812,-0.261 -1.122,-0.31 -2.32,-0.464 -3.596,-0.464 -2.746,0 -4.892,0.831 -6.438,2.494 -0.735,0.812 -1.305,1.778 -1.711,2.9 -0.406,1.121 -0.609,2.436 -0.609,3.944 0,2.861 0.792,5.142 2.378,6.844 1.469,1.701 3.48,2.552 6.032,2.552 1.353,0 2.494,-0.174 3.422,-0.522 0.502,-0.194 1.073,-0.406 1.711,-0.638 0.638,-0.232 1.653,-0.658 3.045,-1.276 v 6.38 c -1.044,0.348 -1.885,0.618 -2.523,0.812 -0.638,0.193 -1.228,0.348 -1.769,0.464 -1.199,0.27 -2.514,0.406 -3.944,0.406 -2.166,0 -4.118,-0.368 -5.858,-1.102 -1.74,-0.735 -3.268,-1.876 -4.582,-3.422 -2.514,-2.862 -3.77,-6.361 -3.77,-10.498 0,-2.204 0.309,-4.225 0.928,-6.061 0.618,-1.837 1.604,-3.432 2.958,-4.785 1.314,-1.392 2.861,-2.426 4.64,-3.103 1.778,-0.677 3.77,-1.015 5.974,-1.015 1.662,0 3.19,0.194 4.582,0.58 0.696,0.194 1.314,0.368 1.856,0.522 0.541,0.155 1.198,0.368 1.972,0.638 V 0.754 C 1.053,0.444 0.483,0.193 0,0 Z"
             style="fill:none;stroke:#ffffff;stroke-width:1;stroke-linecap:butt;stroke-linejoin:miter;stroke-miterlimit:10;stroke-dasharray:none;stroke-opacity:1"
             id="path3370" />
        </g>
        <g
           id="g3372"
           transform="translate(448.8154,708.7422)">
          <path
             d="M 0,0 C -2.668,0 -4.776,0.812 -6.322,2.436 -7.908,3.944 -8.7,6.09 -8.7,8.874 c 0,2.938 0.889,5.355 2.668,7.25 1.74,1.856 3.963,2.784 6.67,2.784 1.546,0 2.842,-0.252 3.886,-0.754 C 4.949,17.96 5.316,17.699 5.626,17.371 5.935,17.042 6.206,16.8 6.438,16.646 V 2.262 C 6.09,2.068 5.713,1.788 5.307,1.421 4.901,1.053 4.485,0.773 4.06,0.58 3.054,0.193 1.701,0 0,0 Z m 6.38,-5.046 h 5.684 V 24.012 H 6.438 v -1.45 c -1.006,0.425 -2.04,0.86 -3.103,1.305 -1.064,0.444 -2.156,0.667 -3.277,0.667 -4.331,0 -7.85,-1.489 -10.556,-4.466 -1.392,-1.47 -2.417,-3.152 -3.074,-5.046 -0.658,-1.895 -0.986,-3.964 -0.986,-6.206 0,-4.099 1.314,-7.521 3.944,-10.266 2.668,-2.668 6.032,-4.002 10.092,-4.002 1.624,0 3.248,0.213 4.872,0.638 0.309,0.078 0.638,0.271 0.986,0.58 0.348,0.31 0.696,0.522 1.044,0.638 z"
             style="fill:none;stroke:#ffffff;stroke-width:1;stroke-linecap:butt;stroke-linejoin:miter;stroke-miterlimit:10;stroke-dasharray:none;stroke-opacity:1"
             id="path3374" />
        </g>
        <g
           id="g3376"
           transform="translate(480.0767,733.2764)">
          <path
             d="m 0,0 c -0.851,0 -1.76,-0.087 -2.726,-0.261 -0.967,-0.174 -1.953,-0.687 -2.958,-1.537 -0.232,-0.194 -0.522,-0.542 -0.87,-1.044 -0.348,-0.503 -0.629,-0.938 -0.841,-1.305 -0.213,-0.368 -0.339,-0.59 -0.377,-0.667 v 4.292 h -5.684 v -28.942 h 5.684 v 17.458 c 0.657,1.198 1.701,2.571 3.132,4.118 0.773,0.85 1.469,1.44 2.088,1.769 0.618,0.328 1.198,0.493 1.74,0.493 0.425,0 0.966,-0.194 1.624,-0.58 0.386,-0.232 0.831,-0.561 1.334,-0.986 0.502,-0.426 1.314,-1.16 2.436,-2.204 l 3.132,4.93 C 7.211,-3.809 6.718,-3.277 6.235,-2.871 5.751,-2.465 5.2,-2.05 4.582,-1.624 3.151,-0.542 1.624,0 0,0 Z"
             style="fill:none;stroke:#ffffff;stroke-width:1;stroke-linecap:butt;stroke-linejoin:miter;stroke-miterlimit:10;stroke-dasharray:none;stroke-opacity:1"
             id="path3378" />
        </g>
        <g
           id="g3380"
           transform="translate(495.2441,723.8223)">
          <path
             d="m 0,0 c 0.212,0.541 0.435,0.966 0.667,1.276 1.353,1.701 3.19,2.552 5.51,2.552 1.933,0 3.441,-0.542 4.524,-1.624 0.386,-0.387 0.725,-0.928 1.015,-1.624 0.29,-0.696 0.531,-1.373 0.725,-2.03 H -0.609 C -0.416,-1.025 -0.213,-0.542 0,0 Z m 19.111,-6.032 c 0,2.706 -0.29,4.959 -0.87,6.757 -0.58,1.798 -1.489,3.373 -2.726,4.727 C 13.079,8.12 9.947,9.454 6.119,9.454 2.213,9.454 -1.015,8.023 -3.567,5.162 -4.843,3.731 -5.791,2.146 -6.409,0.406 c -0.619,-1.74 -0.928,-3.596 -0.928,-5.568 0,-4.447 1.392,-8.12 4.176,-11.02 2.784,-2.9 6.341,-4.35 10.672,-4.35 2.204,0 4.176,0.377 5.916,1.131 1.74,0.754 3.46,1.788 5.162,3.103 v 7.134 c -0.774,-0.696 -1.431,-1.286 -1.972,-1.769 -0.542,-0.484 -1.025,-0.89 -1.45,-1.218 -0.426,-0.329 -0.832,-0.609 -1.218,-0.841 -0.387,-0.232 -0.793,-0.464 -1.218,-0.696 -1.392,-0.812 -3.055,-1.218 -4.988,-1.218 -2.63,0 -4.834,0.889 -6.612,2.668 -1.663,1.624 -2.533,3.692 -2.61,6.206 z"
             style="fill:none;stroke:#ffffff;stroke-width:1;stroke-linecap:butt;stroke-linejoin:miter;stroke-miterlimit:10;stroke-dasharray:none;stroke-opacity:1"
             id="path3382" />
        </g>
      </g>
    </g>
  </g>
</svg>
