<?xml version="1.0" encoding="UTF-8" standalone="no"?>
<!-- Created with Inkscape (http://www.inkscape.org/) -->

<svg
   version="1.1"
   id="svg18"
   width="189.18262"
   height="100.50266"
   viewBox="0 0 189.18262 100.50266"
   xmlns="http://www.w3.org/2000/svg"
   xmlns:svg="http://www.w3.org/2000/svg">
  <defs
     id="defs22">
    <linearGradient
       x1="0"
       y1="0"
       x2="1"
       y2="0"
       gradientUnits="userSpaceOnUse"
       gradientTransform="matrix(75.383179,0,0,-75.383179,966.61682,835.28864)"
       spreadMethod="pad"
       id="linearGradient1134">
      <stop
         style="stop-opacity:1;stop-color:#4baad4"
         offset="0"
         id="stop1130" />
      <stop
         style="stop-opacity:1;stop-color:#006c9b"
         offset="1"
         id="stop1132" />
    </linearGradient>
    <linearGradient
       x1="0"
       y1="0"
       x2="1"
       y2="0"
       gradientUnits="userSpaceOnUse"
       gradientTransform="matrix(73.663589,0,0,-73.663589,900.1131,829.25464)"
       spreadMethod="pad"
       id="linearGradient1154">
      <stop
         style="stop-opacity:1;stop-color:#4baad4"
         offset="0"
         id="stop1150" />
      <stop
         style="stop-opacity:1;stop-color:#006c9b"
         offset="1"
         id="stop1152" />
    </linearGradient>
  </defs>
  <g
     id="g618"
     transform="matrix(1.3333333,0,0,-1.3333333,-1200.1506,1163.9693)">
    <g
       id="g1118">
      <g
         id="g1120">
        <g
           id="g1126">
          <g
             id="g1128">
            <path
               d="m 966.617,835.288 c 0,-20.819 16.874,-37.688 37.689,-37.688 v 0 c 20.819,0 37.694,16.869 37.694,37.688 v 0 c 0,20.814 -16.875,37.689 -37.694,37.689 v 0 c -20.815,0 -37.689,-16.875 -37.689,-37.689 m 14.109,-28.2 c -0.117,0.021 -0.211,2.938 -0.211,2.938 v 0 c 0.091,0.594 0.462,1.433 0.818,1.86 v 0 l 42.119,49.84 c 0.366,0.425 0.806,0.75 1.367,0.946 v 0 l 3.363,0.368 c 0.068,-0.07 -0.01,-3.284 -0.01,-3.284 v 0 c -0.095,-0.591 -0.441,-1.108 -0.804,-1.533 v 0 l -41.973,-49.692 c -0.358,-0.418 -1.124,-0.926 -1.695,-1.11 v 0 c 0,0 -2.575,-0.337 -2.935,-0.337 v 0 c -0.021,0 -0.035,0.001 -0.04,0.004"
               style="fill:url(#linearGradient1134);stroke:none"
               id="path1136" />
          </g>
        </g>
      </g>
    </g>
    <g
       id="g1138">
      <g
         id="g1140">
        <g
           id="g1146">
          <g
             id="g1148">
            <path
               d="m 900.979,842.521 c 0,-5.17 8.526,-10.232 21.096,-12.903 v 0 c 0,0 -0.012,0.015 -0.009,0.015 v 0 c 1.292,1.05 33.95,25.657 33.95,25.657 v 0 c 0,0 0.043,0.031 -0.008,0.031 v 0 c -5.162,0.564 -9.35,0.845 -14.575,0.845 v 0 c -22.345,0 -40.454,-6.107 -40.454,-13.645 M 928.696,828.5 c 4.009,-0.524 8.281,-0.825 12.737,-0.825 v 0 c 8.221,0 15.862,0.995 22.244,2.62 v 0 c -0.183,1.563 -0.29,3.149 -0.29,4.762 v 0 c 0,6.451 1.533,12.549 4.252,17.972 v 0 c -2.285,0.625 -4.856,1.2 -7.728,1.725 v 0 z m -28.566,7.991 c -10e-4,0.038 -0.002,0.076 -0.003,0.112 v 0 c -0.002,0.05 -0.006,0.074 -0.01,0.074 v 0 c -0.006,0 -0.008,-0.065 0.013,-0.186 m 0.294,-19.458 c 0,-0.468 0.061,-0.869 0.166,-1.238 v 0 c 0.006,-0.025 0.008,-0.062 0.013,-0.08 v 0 c 0.194,-0.84 0.331,-1.98 2.401,-4.078 v 0 c 3.673,-3.724 18.552,-9.293 38.142,-9.293 v 0 c 13.911,0 25.523,2.399 32.631,5.75 v 0 c -4.708,5.244 -8.076,11.671 -9.55,18.778 v 0 c -4.578,-1.502 -16.638,-3.836 -26.349,-3.007 v 0 c -34.314,2.935 -37.509,11.274 -37.748,12.626 v 0 c 0.117,-3.903 0.294,-19.458 0.294,-19.458"
               style="fill:url(#linearGradient1154);stroke:none"
               id="path1156" />
          </g>
        </g>
      </g>
    </g>
  </g>
</svg>
