<svg width="68" height="68" viewBox="0 0 68 68" fill="none" xmlns="http://www.w3.org/2000/svg">
<circle cx="34" cy="34" r="34" fill="white"/>
<path fill-rule="evenodd" clip-rule="evenodd" d="M29.5746 40.0895V27.7435C33.9574 29.8058 37.3519 31.7981 41.3666 33.946C38.0553 35.7824 33.9574 37.8428 29.5746 40.0895ZM54.0002 21.6032C53.2442 20.6072 51.9556 19.8318 50.5838 19.5751C46.5516 18.8094 21.3962 18.8072 17.3661 19.5751C16.266 19.7813 15.2864 20.2798 14.4449 21.0543C10.8992 24.3453 12.0103 41.9937 12.8649 44.8525C13.2243 46.09 13.6889 46.9824 14.274 47.5682C15.0279 48.3426 16.06 48.8759 17.2456 49.115C20.5656 49.8018 37.6697 50.1857 50.5136 49.2182C51.697 49.0119 52.7445 48.4615 53.5707 47.6541C56.849 44.3763 56.6255 25.7367 54.0002 21.6032Z" fill="url(#paint0_linear_2_38)"/>
<defs>
<linearGradient id="paint0_linear_2_38" x1="15.5" y1="21" x2="50.5" y2="48.5" gradientUnits="userSpaceOnUse">
<stop stop-color="#668E19"/>
<stop offset="1" stop-color="#C8FA68"/>
</linearGradient>
</defs>
</svg>
